<mxfile host="65bd71144e" scale="4" border="0">
    <diagram id="gh200-memory-hierarchy-updated" name="Memory Hierarchy">
        <mxGraphModel dx="777" dy="420" grid="1" gridSize="10" guides="1" tooltips="1" connect="1" arrows="1" fold="1" page="1" pageScale="1" pageWidth="850" pageHeight="1100" background="#ffffff" math="0" shadow="0">
            <root>
                <mxCell id="0"/>
                <mxCell id="1" parent="0"/>
                <mxCell id="17" value="" style="group" vertex="1" connectable="0" parent="1">
                    <mxGeometry x="20" y="50" width="800" height="500" as="geometry"/>
                </mxCell>
                <mxCell id="title" value="Memory Hierarchy of NVIDIA GH200" style="text;html=1;strokeColor=none;fillColor=none;align=center;verticalAlign=middle;whiteSpace=wrap;rounded=0;fontSize=20;fontStyle=1" parent="17" vertex="1">
                    <mxGeometry x="90" width="500" height="40" as="geometry"/>
                </mxCell>
                <mxCell id="host_side" value="HOST" style="swimlane;whiteSpace=wrap;html=1;fillColor=#f5f5f5;strokeColor=#666666;fontColor=#333333;fontSize=14;fontStyle=1" parent="17" vertex="1">
                    <mxGeometry y="100" width="180" height="140" as="geometry"/>
                </mxCell>
                <mxCell id="host_memory" value="Host Memory&lt;div&gt;~480GB&lt;/div&gt;" style="rounded=1;whiteSpace=wrap;html=1;fillColor=#d5e8d4;strokeColor=#82b366;fontSize=14" parent="host_side" vertex="1">
                    <mxGeometry x="20" y="100" width="140" height="40" as="geometry"/>
                </mxCell>
                <mxCell id="3" value="Cores" style="rounded=0;whiteSpace=wrap;html=1;fontSize=16;fillColor=#b0e3e6;strokeColor=#0e8088;" vertex="1" parent="host_side">
                    <mxGeometry y="30" width="180" height="40" as="geometry"/>
                </mxCell>
                <mxCell id="4" value="" style="edgeStyle=none;html=1;entryX=0.5;entryY=0;entryDx=0;entryDy=0;" edge="1" parent="host_side" source="3" target="host_memory">
                    <mxGeometry relative="1" as="geometry"/>
                </mxCell>
                <mxCell id="host_memory_label" value="&amp;nbsp;~500 GB/s" style="text;html=1;strokeColor=none;fillColor=none;align=center;verticalAlign=middle;whiteSpace=wrap;rounded=0;fontSize=15;" parent="host_side" vertex="1">
                    <mxGeometry x="90" y="75" width="80" height="20" as="geometry"/>
                </mxCell>
                <mxCell id="host_to_device" value="&lt;font style=&quot;font-size: 14px;&quot;&gt;NV C2C 900 GB/s&lt;/font&gt;" style="shape=flexArrow;endArrow=classic;startArrow=classic;html=1;rounded=0;fillColor=#f8cecc;strokeColor=#b85450;fontSize=10;width=14;endSize=4;startSize=4;entryX=0;entryY=0.5;entryDx=0;entryDy=0;exitX=1;exitY=0.5;exitDy=0;exitDx=0;" parent="17" source="host_side" target="device_side" edge="1">
                    <mxGeometry x="0.0588" width="100" height="100" relative="1" as="geometry">
                        <mxPoint x="180" y="150" as="sourcePoint"/>
                        <mxPoint x="280" y="150" as="targetPoint"/>
                        <mxPoint as="offset"/>
                    </mxGeometry>
                </mxCell>
                <mxCell id="bandwidth_arrow" value="" style="shape=flexArrow;endArrow=classic;html=1;rounded=0;fillColor=#f5f5f5;strokeColor=#666666;" parent="17" edge="1">
                    <mxGeometry width="50" height="50" relative="1" as="geometry">
                        <mxPoint x="770" y="50" as="sourcePoint"/>
                        <mxPoint x="770" y="500" as="targetPoint"/>
                    </mxGeometry>
                </mxCell>
                <mxCell id="2" value="Host Storage" style="rounded=1;whiteSpace=wrap;html=1;fillColor=#dae8fc;strokeColor=#6c8ebf;fontSize=14" vertex="1" parent="17">
                    <mxGeometry x="20" y="50" width="140" height="40" as="geometry"/>
                </mxCell>
                <mxCell id="6" value="" style="group" vertex="1" connectable="0" parent="17">
                    <mxGeometry x="260" y="50" width="450" height="450" as="geometry"/>
                </mxCell>
                <mxCell id="device_side" value="DEVICE (GH200)" style="swimlane;whiteSpace=wrap;html=1;fillColor=#fff2cc;strokeColor=#d6b656;fontSize=14;fontStyle=1" parent="6" vertex="1">
                    <mxGeometry width="450" height="450" as="geometry"/>
                </mxCell>
                <mxCell id="device_memory" value="Device Memory (Off-Chip): HBM3 96GB" style="swimlane;whiteSpace=wrap;html=1;fillColor=#e1d5e7;strokeColor=#9673a6;fontSize=14;startSize=30;" parent="device_side" vertex="1">
                    <mxGeometry x="25" y="40" width="400" height="100" as="geometry"/>
                </mxCell>
                <mxCell id="local_mem" value="Local Memory&#xa;(512 KB)" style="rounded=1;whiteSpace=wrap;html=1;fillColor=#e1d5e7;strokeColor=#9673a6;fontSize=12" parent="device_memory" vertex="1">
                    <mxGeometry x="20" y="40" width="80" height="40" as="geometry"/>
                </mxCell>
                <mxCell id="constant_mem" value="Constant Memory&#xa;(64 KB)" style="rounded=1;whiteSpace=wrap;html=1;fillColor=#e1d5e7;strokeColor=#9673a6;fontSize=12" parent="device_memory" vertex="1">
                    <mxGeometry x="115" y="40" width="80" height="40" as="geometry"/>
                </mxCell>
                <mxCell id="texture_mem" value="Texture Memory&#xa;(28-256 KB)" style="rounded=1;whiteSpace=wrap;html=1;fillColor=#e1d5e7;strokeColor=#9673a6;fontSize=12" parent="device_memory" vertex="1">
                    <mxGeometry x="205" y="40" width="80" height="40" as="geometry"/>
                </mxCell>
                <mxCell id="global_mem" value="Global Memory&#xa;(Remaining)" style="rounded=1;whiteSpace=wrap;html=1;fillColor=#e1d5e7;strokeColor=#9673a6;fontSize=12" parent="device_memory" vertex="1">
                    <mxGeometry x="295" y="40" width="80" height="40" as="geometry"/>
                </mxCell>
                <mxCell id="l2_cache" value="L2 Data Cache (On-Chip)" style="rounded=1;whiteSpace=wrap;html=1;fillColor=#fff2cc;strokeColor=#d6b656;fontSize=14" parent="device_side" vertex="1">
                    <mxGeometry x="25" y="180" width="400" height="40" as="geometry"/>
                </mxCell>
                <mxCell id="l2_cache_label" value="~200 cycles" style="text;html=1;strokeColor=none;fillColor=none;align=center;verticalAlign=middle;whiteSpace=wrap;rounded=0;fontSize=14;" parent="device_side" vertex="1">
                    <mxGeometry x="225" y="225" width="115" height="20" as="geometry"/>
                </mxCell>
                <mxCell id="sms_container" value="Streaming Multiprocessors (SMs)" style="swimlane;whiteSpace=wrap;html=1;fillColor=#dae8fc;strokeColor=#6c8ebf;fontSize=14;startSize=30" parent="device_side" vertex="1">
                    <mxGeometry x="25" y="250" width="400" height="180" as="geometry"/>
                </mxCell>
                <mxCell id="l1_shared" value="L1 Cache / Shared Memory (256 KB)" style="swimlane;whiteSpace=wrap;html=1;fillColor=#ffe6cc;strokeColor=#d79b00;fontSize=12;startSize=30" parent="sms_container" vertex="1">
                    <mxGeometry x="20" y="40" width="360" height="80" as="geometry"/>
                </mxCell>
                <mxCell id="shared_memory" value="Shared Memory ~228K" style="rounded=1;whiteSpace=wrap;html=1;fillColor=#ffe6cc;strokeColor=#d79b00;fontSize=11;fontColor=blue;" parent="l1_shared" vertex="1">
                    <mxGeometry x="20" y="45" width="150" height="30" as="geometry"/>
                </mxCell>
                <mxCell id="l1_cache" value="L1 Cache (remaining)" style="rounded=1;whiteSpace=wrap;html=1;fillColor=#ffe6cc;strokeColor=#d79b00;fontSize=11;" parent="l1_shared" vertex="1">
                    <mxGeometry x="190" y="45" width="150" height="30" as="geometry"/>
                </mxCell>
                <mxCell id="registers" value="Registers: private to each thread" style="rounded=1;whiteSpace=wrap;html=1;fillColor=#ffe6cc;strokeColor=#d79b00;fontSize=12;fontColor=blue;fontStyle=1" parent="sms_container" vertex="1">
                    <mxGeometry x="20" y="140" width="360" height="30" as="geometry"/>
                </mxCell>
                <mxCell id="l1_shared_label" value="~20-30 cycles" style="text;html=1;strokeColor=none;fillColor=none;align=center;verticalAlign=middle;whiteSpace=wrap;rounded=0;fontSize=13;" parent="sms_container" vertex="1">
                    <mxGeometry x="220" y="124" width="100" height="10" as="geometry"/>
                </mxCell>
                <mxCell id="l1_to_registers" value="" style="endArrow=classic;startArrow=classic;html=1;rounded=0;exitX=0.5;exitY=1;exitDx=0;exitDy=0;entryX=0.5;entryY=0;entryDx=0;entryDy=0;" parent="sms_container" source="l1_shared" target="registers" edge="1">
                    <mxGeometry width="50" height="50" relative="1" as="geometry">
                        <mxPoint x="35" y="-20" as="sourcePoint"/>
                        <mxPoint x="85" y="-70" as="targetPoint"/>
                    </mxGeometry>
                </mxCell>
                <mxCell id="5" value="~200-1000 cycles, 4.02 TB/s" style="text;html=1;align=center;verticalAlign=middle;resizable=0;points=[];autosize=1;strokeColor=none;fillColor=none;fontSize=14;" vertex="1" parent="device_side">
                    <mxGeometry x="25" y="150" width="200" height="30" as="geometry"/>
                </mxCell>
                <mxCell id="mem_to_l2" value="" style="endArrow=classic;startArrow=classic;html=1;rounded=0;exitX=0.5;exitY=1;exitDx=0;exitDy=0;entryX=0.5;entryY=0;entryDx=0;entryDy=0;" parent="device_side" source="device_memory" target="l2_cache" edge="1">
                    <mxGeometry width="50" height="50" relative="1" as="geometry">
                        <mxPoint x="60" y="230" as="sourcePoint"/>
                        <mxPoint x="110" y="180" as="targetPoint"/>
                    </mxGeometry>
                </mxCell>
                <mxCell id="l2_to_sms" value="" style="endArrow=classic;startArrow=classic;html=1;rounded=0;exitX=0.5;exitY=1;exitDx=0;exitDy=0;entryX=0.5;entryY=0;entryDx=0;entryDy=0;" parent="device_side" source="l2_cache" target="sms_container" edge="1">
                    <mxGeometry width="50" height="50" relative="1" as="geometry">
                        <mxPoint x="60" y="230" as="sourcePoint"/>
                        <mxPoint x="110" y="180" as="targetPoint"/>
                    </mxGeometry>
                </mxCell>
                <mxCell id="latency_arrow" value="" style="shape=flexArrow;endArrow=classic;html=1;rounded=0;fillColor=#f5f5f5;strokeColor=#666666;" parent="17" edge="1">
                    <mxGeometry width="50" height="50" relative="1" as="geometry">
                        <mxPoint x="725" y="500" as="sourcePoint"/>
                        <mxPoint x="725" y="50" as="targetPoint"/>
                    </mxGeometry>
                </mxCell>
                <mxCell id="9" value="Capacity" style="text;html=1;align=center;verticalAlign=middle;resizable=0;points=[];autosize=1;fontStyle=1;fillColor=#f5f5f5;fontColor=#333333;strokeColor=none;fontSize=14;" vertex="1" parent="17">
                    <mxGeometry x="685" y="180" width="80" height="30" as="geometry"/>
                </mxCell>
                <mxCell id="11" value="Speed" style="text;html=1;align=center;verticalAlign=middle;resizable=0;points=[];autosize=1;strokeColor=none;fillColor=#f5f5f5;fontStyle=1;fontSize=14;fontColor=#333333;" vertex="1" parent="17">
                    <mxGeometry x="740" y="280" width="60" height="30" as="geometry"/>
                </mxCell>
                <mxCell id="14" value="" style="endArrow=none;html=1;fontFamily=Helvetica;fontSize=12;fontColor=default;exitX=1;exitY=0.5;exitDx=0;exitDy=0;entryX=1;entryY=0.5;entryDx=0;entryDy=0;" edge="1" source="2" target="3" parent="17">
                    <mxGeometry width="50" height="50" relative="1" as="geometry">
                        <mxPoint x="420" y="100" as="sourcePoint"/>
                        <mxPoint x="360" y="70" as="targetPoint"/>
                        <Array as="points">
                            <mxPoint x="210" y="110"/>
                        </Array>
                    </mxGeometry>
                </mxCell>
                <mxCell id="16" value="PCIe-5 ~512GB/s" style="edgeLabel;html=1;align=center;verticalAlign=middle;resizable=0;points=[];fontSize=13;" vertex="1" connectable="0" parent="14">
                    <mxGeometry x="-0.1008" y="1" relative="1" as="geometry">
                        <mxPoint y="-11" as="offset"/>
                    </mxGeometry>
                </mxCell>
                <mxCell id="15" value="" style="shape=waypoint;sketch=0;fillStyle=solid;size=6;pointerEvents=1;points=[];fillColor=none;resizable=0;rotatable=0;perimeter=centerPerimeter;snapToPoint=1;fontFamily=Helvetica;fontSize=12;fontColor=default;" vertex="1" parent="17">
                    <mxGeometry x="260" y="270" width="20" height="20" as="geometry"/>
                </mxCell>
            </root>
        </mxGraphModel>
    </diagram>
</mxfile>